<svg xmlns="http://www.w3.org/2000/svg" class="icon" viewBox="-102.4 -102.4 1228.8 1228.8"><path fill="#E8E8E8" d="M0 512a512 512 0 1 0 1024 0A512 512 0 1 0 0 512Z"/><path fill="#00a2c2" d="M870 405H619c-27 0-48 21-48 48v117c0 27 21 48 48 48h251c28 0 48-21 48-48V453c0-26-20-48-48-48zm-467 0H152c-27 0-48 21-48 48v117c0 27 21 48 48 48h251c27 0 48-21 48-48V453c0-26-21-48-48-48z"/><path d="M950 458v-5c0-45-35-80-80-80H619c-45 0-80 35-80 80v5h-54v-5c0-45-35-80-80-80H152c-45 0-80 35-80 80v5H0v32h72v80c0 44 35 80 80 80h251c45 0 80-36 80-80v-80h55v80c0 44 35 80 80 80h251c45 0 80-36 80-80v-80h75v-32h-74zM451 570c0 27-21 48-48 48H152c-27 0-48-21-48-48V453c0-27 21-48 48-48h251c27 0 48 22 48 48v117zm467 0c0 27-20 48-48 48H619c-27 0-48-21-48-48V453c0-27 21-48 48-48h251c28 0 48 22 48 48v117z"/></svg>